<svg width="32" height="32" viewBox="0 0 32 32" fill="none" xmlns="http://www.w3.org/2000/svg">
<path d="M16.0001 30.3333C8.09341 30.3333 1.66675 23.9067 1.66675 16C1.66675 8.09333 8.09341 1.66666 16.0001 1.66666C23.9067 1.66666 30.3334 8.09333 30.3334 16C30.3334 23.9067 23.9067 30.3333 16.0001 30.3333ZM16.0001 3.66666C9.20008 3.66666 3.66675 9.2 3.66675 16C3.66675 22.8 9.20008 28.3333 16.0001 28.3333C22.8001 28.3333 28.3334 22.8 28.3334 16C28.3334 9.2 22.8001 3.66666 16.0001 3.66666Z" fill="#323232"/>
<path d="M21.3334 17H10.6667C10.1201 17 9.66675 16.5467 9.66675 16C9.66675 15.4533 10.1201 15 10.6667 15H21.3334C21.8801 15 22.3334 15.4533 22.3334 16C22.3334 16.5467 21.8801 17 21.3334 17Z" fill="#323232"/>
<path d="M16 22.3333C15.4533 22.3333 15 21.88 15 21.3333V10.6667C15 10.12 15.4533 9.66667 16 9.66667C16.5467 9.66667 17 10.12 17 10.6667V21.3333C17 21.88 16.5467 22.3333 16 22.3333Z" fill="#323232"/>
</svg>
