<svg width="32" height="32" viewBox="0 0 32 32" fill="none" xmlns="http://www.w3.org/2000/svg">
<path d="M16.0801 23C15.5334 23 15.0801 22.5467 15.0801 22V15.3334C15.0801 14.7867 15.5334 14.3334 16.0801 14.3334C16.6267 14.3334 17.0801 14.7867 17.0801 15.3334V22C17.0801 22.5467 16.6267 23 16.0801 23Z" fill="#323232"/>
<path d="M19.3334 19.6666H12.6667C12.1201 19.6666 11.6667 19.2133 11.6667 18.6666C11.6667 18.12 12.1201 17.6666 12.6667 17.6666H19.3334C19.8801 17.6666 20.3334 18.12 20.3334 18.6666C20.3334 19.2133 19.8801 19.6666 19.3334 19.6666Z" fill="#323232"/>
<path d="M22.6667 30.3333H9.33341C3.45341 30.3333 1.66675 28.5466 1.66675 22.6666V9.33329C1.66675 3.45329 3.45341 1.66663 9.33341 1.66663H11.3334C13.6667 1.66663 14.4001 2.42663 15.3334 3.66663L17.3334 6.33329C17.7734 6.91996 17.8401 6.99996 18.6667 6.99996H22.6667C28.5467 6.99996 30.3334 8.78663 30.3334 14.6666V22.6666C30.3334 28.5466 28.5467 30.3333 22.6667 30.3333ZM9.33341 3.66663C4.57341 3.66663 3.66675 4.57329 3.66675 9.33329V22.6666C3.66675 27.4266 4.57341 28.3333 9.33341 28.3333H22.6667C27.4267 28.3333 28.3334 27.4266 28.3334 22.6666V14.6666C28.3334 9.90663 27.4267 8.99996 22.6667 8.99996H18.6667C16.9601 8.99996 16.4001 8.41329 15.7334 7.53329L13.7334 4.86663C13.0401 3.94663 12.8401 3.66663 11.3334 3.66663H9.33341Z" fill="#323232"/>
</svg>
