<svg width="32" height="32" viewBox="0 0 32 32" fill="none" xmlns="http://www.w3.org/2000/svg">
<path d="M10.6667 29.7599C10.2934 29.7599 9.90672 29.6666 9.56006 29.4799C8.80006 29.0799 8.33341 28.2799 8.33341 27.4265V25.5333C4.30675 25.12 1.66675 22.1599 1.66675 17.9199V9.91993C1.66675 5.33327 4.74675 2.25327 9.33341 2.25327H22.6667C27.2534 2.25327 30.3334 5.33327 30.3334 9.91993V17.9199C30.3334 22.5065 27.2534 25.5865 22.6667 25.5865H17.6401L11.96 29.3733C11.5734 29.6266 11.1201 29.7599 10.6667 29.7599ZM9.33341 4.23992C5.89341 4.23992 3.66675 6.46659 3.66675 9.90659V17.9067C3.66675 21.3467 5.89341 23.5733 9.33341 23.5733C9.88008 23.5733 10.3334 24.0267 10.3334 24.5733V27.4133C10.3334 27.5867 10.4401 27.6666 10.5068 27.7066C10.5734 27.7466 10.7068 27.7866 10.8534 27.6933L16.7868 23.7467C16.9468 23.64 17.1468 23.5733 17.3468 23.5733H22.6801C26.1201 23.5733 28.3468 21.3467 28.3468 17.9067V9.90659C28.3468 6.46659 26.1201 4.23992 22.6801 4.23992H9.33341Z" fill="#323232"/>
<path d="M15.9997 16.1466C15.453 16.1466 14.9997 15.6933 14.9997 15.1466V14.8667C14.9997 13.32 16.133 12.56 16.5597 12.2667C17.053 11.9333 17.213 11.7067 17.213 11.36C17.213 10.6933 16.6663 10.1466 15.9997 10.1466C15.333 10.1466 14.7864 10.6933 14.7864 11.36C14.7864 11.9067 14.333 12.36 13.7864 12.36C13.2397 12.36 12.7864 11.9067 12.7864 11.36C12.7864 9.58668 14.2263 8.14664 15.9997 8.14664C17.773 8.14664 19.213 9.58668 19.213 11.36C19.213 12.88 18.093 13.64 17.6797 13.92C17.1597 14.2667 16.9997 14.4934 16.9997 14.8667V15.1466C16.9997 15.7066 16.5463 16.1466 15.9997 16.1466Z" fill="#323232"/>
<path d="M16 19.4666C15.44 19.4666 15 19.0133 15 18.4666C15 17.92 15.4533 17.4666 16 17.4666C16.5467 17.4666 17 17.92 17 18.4666C17 19.0133 16.56 19.4666 16 19.4666Z" fill="#323232"/>
</svg>
