<svg width="32" height="32" viewBox="0 0 32 32" fill="none" xmlns="http://www.w3.org/2000/svg">
<path d="M15.3334 29C7.80008 29 1.66675 22.8667 1.66675 15.3333C1.66675 7.79999 7.80008 1.66666 15.3334 1.66666C22.8667 1.66666 29.0001 7.79999 29.0001 15.3333C29.0001 22.8667 22.8667 29 15.3334 29ZM15.3334 3.66666C8.89341 3.66666 3.66675 8.90666 3.66675 15.3333C3.66675 21.76 8.89341 27 15.3334 27C21.7734 27 27.0001 21.76 27.0001 15.3333C27.0001 8.90666 21.7734 3.66666 15.3334 3.66666Z" fill="#323232"/>
<path d="M29.3333 30.3333C29.0799 30.3333 28.8266 30.24 28.6266 30.04L25.9599 27.3733C25.5733 26.9867 25.5733 26.3466 25.9599 25.96C26.3466 25.5733 26.9866 25.5733 27.3733 25.96L30.0399 28.6266C30.4266 29.0133 30.4266 29.6533 30.0399 30.04C29.8399 30.24 29.5866 30.3333 29.3333 30.3333Z" fill="#323232"/>
</svg>
