<svg width="32" height="32" viewBox="0 0 32 32" fill="none" xmlns="http://www.w3.org/2000/svg">
<path d="M16.0001 30.3333C8.09341 30.3333 1.66675 23.9067 1.66675 16C1.66675 8.09333 8.09341 1.66666 16.0001 1.66666C23.9067 1.66666 30.3334 8.09333 30.3334 16C30.3334 23.9067 23.9067 30.3333 16.0001 30.3333ZM16.0001 3.66666C9.20008 3.66666 3.66675 9.2 3.66675 16C3.66675 22.8 9.20008 28.3333 16.0001 28.3333C22.8001 28.3333 28.3334 22.8 28.3334 16C28.3334 9.2 22.8001 3.66666 16.0001 3.66666Z" fill="#323232"/>
<path d="M12.2266 20.7733C11.9733 20.7733 11.72 20.68 11.52 20.48C11.1333 20.0933 11.1333 19.4533 11.52 19.0667L19.0666 11.52C19.4533 11.1333 20.0933 11.1333 20.48 11.52C20.8666 11.9067 20.8666 12.5467 20.48 12.9333L12.9333 20.48C12.7466 20.68 12.48 20.7733 12.2266 20.7733Z" fill="#323232"/>
<path d="M19.7733 20.7733C19.52 20.7733 19.2666 20.68 19.0666 20.48L11.52 12.9333C11.1333 12.5467 11.1333 11.9067 11.52 11.52C11.9066 11.1333 12.5466 11.1333 12.9333 11.52L20.48 19.0667C20.8666 19.4533 20.8666 20.0933 20.48 20.48C20.28 20.68 20.0266 20.7733 19.7733 20.7733Z" fill="#323232"/>
</svg>
