<svg width="24" height="24" viewBox="0 0 24 24" fill="none" xmlns="http://www.w3.org/2000/svg">
<path d="M15.3488 24H8.65116C2.58977 24 0 21.4102 0 15.3488V8.65116C0 2.58977 2.58977 0 8.65116 0H15.3488C21.4102 0 24 2.58977 24 8.65116V15.3488C24 21.4102 21.4102 24 15.3488 24ZM8.65116 1.67442C3.50512 1.67442 1.67442 3.50512 1.67442 8.65116V15.3488C1.67442 20.4949 3.50512 22.3256 8.65116 22.3256H15.3488C20.4949 22.3256 22.3256 20.4949 22.3256 15.3488V8.65116C22.3256 3.50512 20.4949 1.67442 15.3488 1.67442H8.65116Z" fill="#323232"/>
<path d="M10.9372 16C10.7171 16 10.508 15.9107 10.3539 15.7544L7.23937 12.5957C6.92021 12.2721 6.92021 11.7363 7.23937 11.4126C7.55853 11.0889 8.08679 11.0889 8.40595 11.4126L10.9372 13.9798L16.594 8.24276C16.9132 7.91908 17.4415 7.91908 17.7606 8.24276C18.0798 8.56645 18.0798 9.1022 17.7606 9.42588L11.5205 15.7544C11.3664 15.9107 11.1573 16 10.9372 16Z" fill="#323232"/>
</svg>
