<svg width="32" height="32" viewBox="0 0 32 32" fill="none" xmlns="http://www.w3.org/2000/svg">
<path d="M7.38665 26.0267C6.57332 26.0267 5.81332 25.7467 5.26665 25.2267C4.57332 24.5733 4.23998 23.5866 4.35998 22.52L4.85332 18.2C4.94665 17.3867 5.43998 16.3067 6.01332 15.72L16.96 4.13332C19.6933 1.23998 22.5466 1.15998 25.44 3.89332C28.3333 6.62665 28.4133 9.47998 25.68 12.3733L14.7333 23.96C14.1733 24.56 13.1333 25.12 12.32 25.2533L8.02665 25.9867C7.79998 26 7.59998 26.0267 7.38665 26.0267ZM21.24 3.87998C20.2133 3.87998 19.32 4.51998 18.4133 5.47998L7.46665 17.08C7.19998 17.36 6.89332 18.0267 6.83998 18.4133L6.34665 22.7333C6.29332 23.1733 6.39998 23.5333 6.63998 23.76C6.87998 23.9867 7.23998 24.0667 7.67998 24L11.9733 23.2667C12.36 23.2 13 22.8533 13.2666 22.5733L24.2133 10.9866C25.8666 9.22665 26.4667 7.59998 24.0533 5.33332C22.9867 4.30665 22.0667 3.87998 21.24 3.87998Z" fill="#323232"/>
<path d="M23.1199 14.6C23.0933 14.6 23.0533 14.6 23.0266 14.6C18.8666 14.1867 15.5199 11.0267 14.8799 6.89336C14.7999 6.34669 15.1733 5.84002 15.7199 5.74669C16.2666 5.66669 16.7733 6.04002 16.8666 6.58669C17.3733 9.81336 19.9866 12.2934 23.2399 12.6134C23.7866 12.6667 24.1866 13.16 24.1333 13.7067C24.0666 14.2134 23.6266 14.6 23.1199 14.6Z" fill="#323232"/>
<path d="M28 30.3333H4C3.45333 30.3333 3 29.88 3 29.3333C3 28.7866 3.45333 28.3333 4 28.3333H28C28.5467 28.3333 29 28.7866 29 29.3333C29 29.88 28.5467 30.3333 28 30.3333Z" fill="#323232"/>
</svg>
