<svg width="32" height="32" viewBox="0 0 32 32" fill="none" xmlns="http://www.w3.org/2000/svg">
<path d="M25.8933 15.6666H21.3333C20.7866 15.6666 20.3333 15.2133 20.3333 14.6666V5.34662C20.3333 4.35996 20.7199 3.43996 21.4133 2.74663C22.1066 2.05329 23.0266 1.66663 24.0133 1.66663H24.0266C25.6933 1.67996 27.2666 2.33329 28.4666 3.51996C29.6666 4.73329 30.3199 6.33329 30.3199 7.99996V11.2266C30.3333 13.88 28.5466 15.6666 25.8933 15.6666ZM22.3333 13.6666H25.8933C27.4399 13.6666 28.3333 12.7733 28.3333 11.2266V7.99996C28.3333 6.85329 27.8799 5.75996 27.0666 4.93329C26.2533 4.13329 25.1599 3.67996 24.0266 3.66663C24.0266 3.66663 24.0266 3.66663 24.0133 3.66663C23.5733 3.66663 23.1466 3.83996 22.8266 4.15996C22.5066 4.47996 22.3333 4.89329 22.3333 5.34662V13.6666Z" fill="#323232"/>
<path d="M12.0001 31.1066C11.3734 31.1066 10.7867 30.8666 10.3467 30.4133L8.13341 28.1866C8.01341 28.0666 7.82675 28.0533 7.69341 28.16L5.40008 29.8666C4.69342 30.4 3.76008 30.4933 2.96008 30.0933C2.16008 29.6933 1.66675 28.8933 1.66675 28V7.99996C1.66675 3.97329 3.97341 1.66663 8.00008 1.66663H24.0001C24.5467 1.66663 25.0001 2.11996 25.0001 2.66663C25.0001 3.21329 24.5467 3.66663 24.0001 3.66663C23.0801 3.66663 22.3334 4.41329 22.3334 5.33329V28C22.3334 28.8933 21.8401 29.6933 21.0401 30.0933C20.2401 30.4933 19.3067 30.4133 18.6001 29.88L16.3201 28.1733C16.1867 28.0666 16.0001 28.0933 15.8934 28.2L13.6534 30.44C13.2134 30.8666 12.6267 31.1066 12.0001 31.1066ZM7.88008 26.0933C8.49341 26.0933 9.09341 26.32 9.54675 26.7866L11.7601 29.0133C11.8401 29.0933 11.9467 29.1066 12.0001 29.1066C12.0534 29.1066 12.1601 29.0933 12.2401 29.0133L14.4801 26.7733C15.3067 25.9466 16.6134 25.8666 17.5334 26.5733L19.8001 28.2666C19.9467 28.3733 20.0801 28.3333 20.1467 28.2933C20.2134 28.2533 20.3334 28.1733 20.3334 28V5.33329C20.3334 4.73329 20.4801 4.15996 20.7334 3.66663H8.00008C5.04008 3.66663 3.66675 5.03996 3.66675 7.99996V28C3.66675 28.1866 3.78675 28.2666 3.85342 28.3066C3.93341 28.3466 4.06675 28.3733 4.20008 28.2666L6.48008 26.56C6.89341 26.2533 7.38675 26.0933 7.88008 26.0933Z" fill="#323232"/>
<path d="M16 18.3467H12C11.4533 18.3467 11 17.8933 11 17.3467C11 16.8 11.4533 16.3467 12 16.3467H16C16.5467 16.3467 17 16.8 17 17.3467C17 17.8933 16.5467 18.3467 16 18.3467Z" fill="#323232"/>
<path d="M16 13.0133H12C11.4533 13.0133 11 12.56 11 12.0133C11 11.4666 11.4533 11.0133 12 11.0133H16C16.5467 11.0133 17 11.4666 17 12.0133C17 12.56 16.5467 13.0133 16 13.0133Z" fill="#323232"/>
<path d="M7.96029 13.3467C7.22695 13.3467 6.62695 12.7467 6.62695 12.0134C6.62695 11.2801 7.22695 10.6801 7.96029 10.6801C8.69362 10.6801 9.29362 11.2801 9.29362 12.0134C9.29362 12.7467 8.69362 13.3467 7.96029 13.3467Z" fill="#323232"/>
<path d="M7.96029 18.68C7.22695 18.68 6.62695 18.08 6.62695 17.3466C6.62695 16.6133 7.22695 16.0133 7.96029 16.0133C8.69362 16.0133 9.29362 16.6133 9.29362 17.3466C9.29362 18.08 8.69362 18.68 7.96029 18.68Z" fill="#323232"/>
</svg>
