<svg width="32" height="32" viewBox="0 0 32 32" fill="none" xmlns="http://www.w3.org/2000/svg">
<path d="M16.0001 30.3334C8.09341 30.3334 1.66675 23.9067 1.66675 16C1.66675 8.09335 8.09341 1.66669 16.0001 1.66669C23.9067 1.66669 30.3334 8.09335 30.3334 16C30.3334 23.9067 23.9067 30.3334 16.0001 30.3334ZM16.0001 3.66669C9.20008 3.66669 3.66675 9.20002 3.66675 16C3.66675 22.8 9.20008 28.3334 16.0001 28.3334C22.8001 28.3334 28.3334 22.8 28.3334 16C28.3334 9.20002 22.8001 3.66669 16.0001 3.66669Z" fill="#323232"/>
<path d="M16 20.3333C15.4533 20.3333 15 19.88 15 19.3333V11.3333C15 10.7866 15.4533 10.3333 16 10.3333C16.5467 10.3333 17 10.7866 17 11.3333V19.3333C17 19.88 16.5467 20.3333 16 20.3333Z" fill="#323232"/>
<path d="M16.0001 21.6666C15.7468 21.6666 15.4934 21.5733 15.2934 21.3733L11.2934 17.3733C10.9068 16.9866 10.9068 16.3466 11.2934 15.96C11.6801 15.5733 12.3201 15.5733 12.7068 15.96L16.0001 19.2533L19.2934 15.96C19.6801 15.5733 20.3201 15.5733 20.7068 15.96C21.0934 16.3466 21.0934 16.9866 20.7068 17.3733L16.7068 21.3733C16.5068 21.5733 16.2534 21.6666 16.0001 21.6666Z" fill="#323232"/>
</svg>
