<svg width="32" height="32" viewBox="0 0 32 32" fill="none" xmlns="http://www.w3.org/2000/svg">
<path d="M16.0001 30.3334C8.09341 30.3334 1.66675 23.9067 1.66675 16C1.66675 8.09335 8.09341 1.66669 16.0001 1.66669C23.9067 1.66669 30.3334 8.09335 30.3334 16C30.3334 23.9067 23.9067 30.3334 16.0001 30.3334ZM16.0001 3.66669C9.20008 3.66669 3.66675 9.20002 3.66675 16C3.66675 22.8 9.20008 28.3334 16.0001 28.3334C22.8001 28.3334 28.3334 22.8 28.3334 16C28.3334 9.20002 22.8001 3.66669 16.0001 3.66669Z" fill="#323232"/>
<path d="M20.6667 17H12.6667C12.1201 17 11.6667 16.5467 11.6667 16C11.6667 15.4533 12.1201 15 12.6667 15H20.6667C21.2134 15 21.6667 15.4533 21.6667 16C21.6667 16.5467 21.2134 17 20.6667 17Z" fill="#323232"/>
<path d="M15.3333 21C15.08 21 14.8267 20.9067 14.6267 20.7067L10.6267 16.7067C10.24 16.32 10.24 15.68 10.6267 15.2934L14.6267 11.2934C15.0133 10.9067 15.6533 10.9067 16.04 11.2934C16.4267 11.68 16.4267 12.32 16.04 12.7067L12.7467 16L16.04 19.2934C16.4267 19.68 16.4267 20.32 16.04 20.7067C15.84 20.9067 15.5867 21 15.3333 21Z" fill="#323232"/>
</svg>
