<svg width="32" height="32" viewBox="0 0 32 32" fill="none" xmlns="http://www.w3.org/2000/svg">
<path d="M16.0001 30.3334C8.09341 30.3334 1.66675 23.9067 1.66675 16C1.66675 8.09335 8.09341 1.66669 16.0001 1.66669C23.9067 1.66669 30.3334 8.09335 30.3334 16C30.3334 23.9067 23.9067 30.3334 16.0001 30.3334ZM16.0001 3.66669C9.20008 3.66669 3.66675 9.20002 3.66675 16C3.66675 22.8 9.20008 28.3334 16.0001 28.3334C22.8001 28.3334 28.3334 22.8 28.3334 16C28.3334 9.20002 22.8001 3.66669 16.0001 3.66669Z" fill="#323232"/>
<path d="M16 21.6667C15.4533 21.6667 15 21.2134 15 20.6667V12.6667C15 12.12 15.4533 11.6667 16 11.6667C16.5467 11.6667 17 12.12 17 12.6667V20.6667C17 21.2134 16.5467 21.6667 16 21.6667Z" fill="#323232"/>
<path d="M20.0001 16.3333C19.7468 16.3333 19.4934 16.24 19.2934 16.04L16.0001 12.7467L12.7068 16.04C12.3201 16.4267 11.6801 16.4267 11.2934 16.04C10.9068 15.6533 10.9068 15.0133 11.2934 14.6267L15.2934 10.6267C15.6801 10.24 16.3201 10.24 16.7068 10.6267L20.7068 14.6267C21.0934 15.0133 21.0934 15.6533 20.7068 16.04C20.5068 16.24 20.2534 16.3333 20.0001 16.3333Z" fill="#323232"/>
</svg>
