<svg width="32" height="32" viewBox="0 0 32 32" fill="none" xmlns="http://www.w3.org/2000/svg">
<path d="M16.0001 30.3334C8.09341 30.3334 1.66675 23.9067 1.66675 16C1.66675 8.09335 8.09341 1.66669 16.0001 1.66669C23.9067 1.66669 30.3334 8.09335 30.3334 16C30.3334 23.9067 23.9067 30.3334 16.0001 30.3334ZM16.0001 3.66669C9.20008 3.66669 3.66675 9.20002 3.66675 16C3.66675 22.8 9.20008 28.3334 16.0001 28.3334C22.8001 28.3334 28.3334 22.8 28.3334 16C28.3334 9.20002 22.8001 3.66669 16.0001 3.66669Z" fill="#323232"/>
<path d="M19.3333 17H11.3333C10.7866 17 10.3333 16.5467 10.3333 16C10.3333 15.4533 10.7866 15 11.3333 15H19.3333C19.8799 15 20.3333 15.4533 20.3333 16C20.3333 16.5467 19.8799 17 19.3333 17Z" fill="#323232"/>
<path d="M16.6666 21C16.4133 21 16.1599 20.9067 15.9599 20.7067C15.5733 20.32 15.5733 19.68 15.9599 19.2934L19.2533 16L15.9599 12.7067C15.5733 12.32 15.5733 11.68 15.9599 11.2934C16.3466 10.9067 16.9866 10.9067 17.3733 11.2934L21.3733 15.2934C21.7599 15.68 21.7599 16.32 21.3733 16.7067L17.3733 20.7067C17.1733 20.9067 16.9199 21 16.6666 21Z" fill="#323232"/>
</svg>
