<svg width="15" height="15" viewBox="0 0 15 15" fill="none" xmlns="http://www.w3.org/2000/svg">
<path d="M10.5272 12.6674C10.432 12.6677 10.338 12.6453 10.2533 12.6019L7.21599 11.0118L4.17872 12.6019C4.0801 12.6537 3.9689 12.6769 3.85777 12.6687C3.74664 12.6605 3.64004 12.6213 3.55009 12.5555C3.46013 12.4898 3.39043 12.4001 3.3489 12.2967C3.30738 12.1933 3.2957 12.0803 3.31519 11.9706L3.91073 8.61767L1.4571 6.23551C1.38054 6.15911 1.32624 6.06332 1.30001 5.9584C1.27378 5.85348 1.27661 5.74339 1.30821 5.63996C1.34273 5.53412 1.40622 5.44007 1.49149 5.36849C1.57675 5.29691 1.68038 5.25066 1.7906 5.23499L5.18519 4.74069L6.68 1.68556C6.72877 1.58487 6.80491 1.49996 6.89971 1.44054C6.9945 1.38112 7.10412 1.34961 7.21599 1.34961C7.32787 1.34961 7.43748 1.38112 7.53228 1.44054C7.62707 1.49996 7.70321 1.58487 7.75198 1.68556L9.26466 4.73474L12.6593 5.22904C12.7695 5.2447 12.8731 5.29095 12.9584 5.36253C13.0436 5.43412 13.1071 5.52816 13.1416 5.63401C13.1732 5.73744 13.1761 5.84752 13.1498 5.95244C13.1236 6.05736 13.0693 6.15316 12.9928 6.22955L10.5391 8.61172L11.1347 11.9646C11.1559 12.0763 11.1448 12.1917 11.1026 12.2972C11.0604 12.4027 10.9888 12.494 10.8964 12.5602C10.7886 12.6357 10.6588 12.6734 10.5272 12.6674Z" fill="#990099"/>
</svg>
