<svg width="16" height="15" viewBox="0 0 16 15" fill="none" xmlns="http://www.w3.org/2000/svg">
<g opacity="0.48">
<path d="M11.2616 12.5209C11.1663 12.5213 11.0724 12.4988 10.9876 12.4554L7.95037 10.8653L4.9131 12.4554C4.81447 12.5072 4.70328 12.5304 4.59215 12.5222C4.48102 12.514 4.37442 12.4748 4.28446 12.409C4.19451 12.3433 4.1248 12.2536 4.08328 12.1502C4.04175 12.0468 4.03007 11.9338 4.04956 11.8241L4.64511 8.47119L2.19147 6.08902C2.11492 6.01263 2.06061 5.91683 2.03438 5.81191C2.00815 5.70699 2.01099 5.59691 2.04258 5.49348C2.0771 5.38764 2.1406 5.29359 2.22586 5.222C2.31113 5.15042 2.41475 5.10418 2.52497 5.08851L5.91957 4.59421L7.41438 1.53908C7.46314 1.43839 7.53929 1.35347 7.63408 1.29405C7.72888 1.23464 7.83849 1.20312 7.95037 1.20312C8.06224 1.20312 8.17186 1.23464 8.26665 1.29405C8.36145 1.35347 8.43759 1.43839 8.48635 1.53908L9.99903 4.58825L13.3936 5.08255C13.5038 5.09822 13.6075 5.14447 13.6927 5.21605C13.778 5.28763 13.8415 5.38168 13.876 5.48752C13.9076 5.59095 13.9104 5.70104 13.8842 5.80596C13.858 5.91088 13.8037 6.00667 13.7271 6.08307L11.2735 8.46523L11.869 11.8181C11.8903 11.9298 11.8792 12.0452 11.837 12.1507C11.7947 12.2562 11.7232 12.3475 11.6308 12.4137C11.523 12.4893 11.3931 12.527 11.2616 12.5209Z" fill="#969696"/>
</g>
</svg>
