<svg width="32" height="32" viewBox="0 0 32 32" fill="none" xmlns="http://www.w3.org/2000/svg">
<path d="M19.6001 30.3334H12.4001C5.81343 30.3334 3.01343 27.52 3.01343 20.9467V14.96C3.01343 14.4134 3.46676 13.96 4.01343 13.96C4.56009 13.96 5.01343 14.4134 5.01343 14.96V20.9467C5.01343 26.4 6.94676 28.3334 12.4001 28.3334H19.5868C25.0401 28.3334 26.9734 26.4 26.9734 20.9467V14.96C26.9734 14.4134 27.4268 13.96 27.9734 13.96C28.5201 13.96 28.9734 14.4134 28.9734 14.96V20.9467C28.9868 27.52 26.1734 30.3334 19.6001 30.3334Z" fill="#323232"/>
<path d="M15.9999 17C14.5333 17 13.1999 16.4267 12.2533 15.3734C11.3066 14.32 10.8666 12.9467 11.0133 11.48L11.9066 2.57335C11.9599 2.06669 12.3866 1.66669 12.9066 1.66669H19.1333C19.6533 1.66669 20.0799 2.05335 20.1333 2.57335L21.0266 11.48C21.1733 12.9467 20.7333 14.32 19.7866 15.3734C18.7999 16.4267 17.4666 17 15.9999 17ZM13.7999 3.66669L12.9999 11.68C12.9066 12.5734 13.1733 13.4134 13.7333 14.0267C14.8666 15.28 17.1333 15.28 18.2666 14.0267C18.8266 13.4 19.0933 12.56 18.9999 11.68L18.1999 3.66669H13.7999Z" fill="#323232"/>
<path d="M24.4133 17C21.7066 17 19.2933 14.8134 19.0133 12.12L18.0799 2.77335C18.0533 2.49335 18.1466 2.21335 18.3333 2.00002C18.5199 1.78669 18.7866 1.66669 19.0799 1.66669H23.1466C27.0666 1.66669 28.8933 3.30669 29.4399 7.33335L29.8133 11.04C29.9733 12.6134 29.4933 14.1067 28.4666 15.24C27.4399 16.3734 25.9999 17 24.4133 17ZM20.1866 3.66669L21.0133 11.92C21.1866 13.5867 22.7333 15 24.4133 15C25.4266 15 26.3333 14.6134 26.9866 13.9067C27.6266 13.2 27.9199 12.2534 27.8266 11.24L27.4533 7.57335C27.0399 4.56002 26.0666 3.66669 23.1466 3.66669H20.1866Z" fill="#323232"/>
<path d="M7.52003 17C5.93336 17 4.49336 16.3734 3.4667 15.24C2.44003 14.1067 1.96003 12.6134 2.12003 11.04L2.48003 7.37335C3.04003 3.30669 4.8667 1.66669 8.7867 1.66669H12.8534C13.1334 1.66669 13.4 1.78669 13.6 2.00002C13.8 2.21335 13.88 2.49335 13.8534 2.77335L12.92 12.12C12.64 14.8134 10.2267 17 7.52003 17ZM8.7867 3.66669C5.8667 3.66669 4.89336 4.54669 4.4667 7.60002L4.1067 11.24C4.00003 12.2534 4.3067 13.2 4.9467 13.9067C5.5867 14.6134 6.49336 15 7.52003 15C9.20003 15 10.76 13.5867 10.92 11.92L11.7467 3.66669H8.7867Z" fill="#323232"/>
<path d="M19.3334 30.3334H12.6667C12.1201 30.3334 11.6667 29.88 11.6667 29.3334V26C11.6667 23.2 13.2001 21.6667 16.0001 21.6667C18.8001 21.6667 20.3334 23.2 20.3334 26V29.3334C20.3334 29.88 19.8801 30.3334 19.3334 30.3334ZM13.6667 28.3334H18.3334V26C18.3334 24.32 17.6801 23.6667 16.0001 23.6667C14.3201 23.6667 13.6667 24.32 13.6667 26V28.3334Z" fill="#323232"/>
</svg>
