<svg width="32" height="32" viewBox="0 0 32 32" fill="none" xmlns="http://www.w3.org/2000/svg">
<path d="M23.9998 10.5467C23.9598 10.5467 23.9332 10.5467 23.8932 10.5467H23.8265C21.3065 10.4667 19.4265 8.52 19.4265 6.12C19.4265 3.66666 21.4265 1.67999 23.8665 1.67999C26.3065 1.67999 28.3065 3.68 28.3065 6.12C28.2932 8.53333 26.4132 10.48 24.0132 10.56C24.0132 10.5467 24.0132 10.5467 23.9998 10.5467ZM23.8665 3.66667C22.5198 3.66667 21.4265 4.76 21.4265 6.10667C21.4265 7.42667 22.4532 8.49334 23.7732 8.54667C23.7865 8.53334 23.8932 8.53334 24.0132 8.54667C25.3065 8.48001 26.3065 7.41334 26.3198 6.10667C26.3198 4.76 25.2265 3.66667 23.8665 3.66667Z" fill="#323232"/>
<path d="M24.0133 20.3734C23.4933 20.3734 22.9733 20.3334 22.4533 20.24C21.9066 20.1467 21.5466 19.6267 21.6399 19.0801C21.7333 18.5334 22.2533 18.1734 22.7999 18.2667C24.4399 18.5467 26.1733 18.2401 27.3333 17.4667C27.9599 17.0534 28.2933 16.5334 28.2933 16.0134C28.2933 15.4934 27.9466 14.9867 27.3333 14.5734C26.1733 13.8 24.4133 13.4934 22.7599 13.7867C22.2133 13.8934 21.6933 13.5201 21.5999 12.9734C21.5066 12.4267 21.8666 11.9067 22.4133 11.8134C24.5866 11.4267 26.8399 11.84 28.4399 12.9067C29.6133 13.6934 30.2933 14.8134 30.2933 16.0134C30.2933 17.2001 29.6266 18.3334 28.4399 19.1334C27.2266 19.9334 25.6533 20.3734 24.0133 20.3734Z" fill="#323232"/>
<path d="M7.9599 10.5467C7.94656 10.5467 7.93323 10.5467 7.93323 10.5467C5.53323 10.4667 3.65323 8.52002 3.63989 6.12002C3.63989 3.66668 5.63989 1.66669 8.0799 1.66669C10.5199 1.66669 12.5199 3.66669 12.5199 6.10669C12.5199 8.52002 10.6399 10.4667 8.23989 10.5467L7.9599 9.54669L8.05323 10.5467C8.02656 10.5467 7.98656 10.5467 7.9599 10.5467ZM8.09323 8.54669C8.17323 8.54669 8.2399 8.54668 8.3199 8.56002C9.50656 8.50668 10.5466 7.44002 10.5466 6.12002C10.5466 4.77335 9.45323 3.68001 8.10656 3.68001C6.7599 3.68001 5.66656 4.77335 5.66656 6.12002C5.66656 7.42668 6.67989 8.48002 7.97323 8.56002C7.98656 8.54668 8.03989 8.54669 8.09323 8.54669Z" fill="#323232"/>
<path d="M7.94675 20.3734C6.30675 20.3734 4.73341 19.9334 3.52008 19.1334C2.34675 18.3467 1.66675 17.2134 1.66675 16.0134C1.66675 14.8267 2.34675 13.6934 3.52008 12.9067C5.12008 11.84 7.37341 11.4267 9.54675 11.8134C10.0934 11.9067 10.4534 12.4267 10.3601 12.9734C10.2667 13.5201 9.74675 13.8934 9.20008 13.7867C7.54675 13.4934 5.80008 13.8 4.62675 14.5734C4.00008 14.9867 3.66675 15.4934 3.66675 16.0134C3.66675 16.5334 4.01342 17.0534 4.62675 17.4667C5.78675 18.2401 7.52008 18.5467 9.16008 18.2667C9.70675 18.1734 10.2268 18.5467 10.3201 19.0801C10.4134 19.6267 10.0534 20.1467 9.50675 20.24C8.98675 20.3334 8.46675 20.3734 7.94675 20.3734Z" fill="#323232"/>
<path d="M15.9998 20.5066C15.9598 20.5066 15.9332 20.5066 15.8932 20.5066H15.8265C13.3065 20.4266 11.4265 18.48 11.4265 16.08C11.4265 13.6266 13.4265 11.64 15.8665 11.64C18.3065 11.64 20.3065 13.64 20.3065 16.08C20.2932 18.4933 18.4132 20.44 16.0132 20.52C16.0132 20.5066 16.0132 20.5066 15.9998 20.5066ZM15.8665 13.6266C14.5198 13.6266 13.4265 14.72 13.4265 16.0666C13.4265 17.3866 14.4532 18.4533 15.7732 18.5066C15.7865 18.4933 15.8932 18.4933 16.0132 18.5066C17.3065 18.44 18.3065 17.3733 18.3198 16.0666C18.3198 14.7333 17.2265 13.6266 15.8665 13.6266Z" fill="#323232"/>
<path d="M15.9996 30.3466C14.3996 30.3466 12.7996 29.9333 11.5596 29.0933C10.3863 28.3067 9.7063 27.1867 9.7063 25.9867C9.7063 24.8 10.373 23.6533 11.5596 22.8666C14.053 21.2133 17.9596 21.2133 20.4396 22.8666C21.613 23.6533 22.293 24.7733 22.293 25.9733C22.293 27.16 21.6263 28.3067 20.4396 29.0933C19.1996 29.92 17.5996 30.3466 15.9996 30.3466ZM12.6663 24.5467C12.0396 24.96 11.7063 25.48 11.7063 26C11.7063 26.52 12.053 27.0267 12.6663 27.44C14.4663 28.6533 17.5196 28.6533 19.3196 27.44C19.9463 27.0267 20.2796 26.5067 20.2796 25.9867C20.2796 25.4667 19.933 24.96 19.3196 24.5467C17.533 23.3333 14.4796 23.3467 12.6663 24.5467Z" fill="#323232"/>
</svg>
